# xmcd
#
# Track frame offsets:
# 150
# 5118
# 30215
# 59107
# 73697
# 100757
# 127898
# 156358
# 177662
# 211021
# 232066
# 261180
# 265193
# 289737
#
# Disc length: 4217 seconds
#
# Revision: 0
# Processed by: cddbd v1.4PL0 Copyright (c) Steve Scherf et al.
# Submitted via: Audion 2.6.0 (http://www.panic.com/audion/)
#
DISCID=cc10770e
DTITLE=Audity - The Language I Think In
DYEAR=1900
DGENRE=
TTITLE0=Audity Central
TTITLE1=Music of My Heart
TTITLE2=Inevitable
TTITLE3=Up/Down
TTITLE4=Life Cycle
TTITLE5=A Wandering Mind
TTITLE6=Canticle
TTITLE7=The Safe and Sound
TTITLE8=Angel on Earth
TTITLE9=Lacuna
TTITLE10=Haute 2 Trot (Vocal Mix)
TTITLE11=Travelling Without Moving
TTITLE12=Starreallus
TTITLE13=Divine Skyline
EXTD=
EXTT0=
EXTT1=
EXTT2=
EXTT3=
EXTT4=
EXTT5=
EXTT6=
EXTT7=
EXTT8=
EXTT9=
EXTT10=
EXTT11=
EXTT12=
EXTT13=
PLAYORDER=
